<?xml version="1.0" encoding="UTF-8" standalone="no"?>
<svg
   version="1.0"
   width="300.000000pt"
   height="300.000000pt"
   viewBox="0 0 300.000000 300.000000"
   preserveAspectRatio="xMidYMid meet"
   id="svg180"
   sodipodi:docname="fitness.svg"
   inkscape:version="1.2.1 (9c6d41e410, 2022-07-14)"
   xmlns:inkscape="http://www.inkscape.org/namespaces/inkscape"
   xmlns:sodipodi="http://sodipodi.sourceforge.net/DTD/sodipodi-0.dtd"
   xmlns="http://www.w3.org/2000/svg"
   xmlns:svg="http://www.w3.org/2000/svg">
  <defs
     id="defs184" />
  <sodipodi:namedview
     id="namedview182"
     pagecolor="#ffffff"
     bordercolor="#000000"
     borderopacity="0.25"
     inkscape:showpageshadow="2"
     inkscape:pageopacity="0.0"
     inkscape:pagecheckerboard="0"
     inkscape:deskcolor="#d1d1d1"
     inkscape:document-units="pt"
     showgrid="false"
     inkscape:zoom="1.8154967"
     inkscape:cx="12.393303"
     inkscape:cy="213.71562"
     inkscape:window-width="2560"
     inkscape:window-height="1369"
     inkscape:window-x="-8"
     inkscape:window-y="-8"
     inkscape:window-maximized="1"
     inkscape:current-layer="svg180" />
  <metadata
     id="metadata94">
Created by potrace 1.10, written by Peter Selinger 2001-2011
</metadata>
  <g
     transform="translate(0.000000,300.000000) scale(0.100000,-0.100000)"
     fill="#000000"
     stroke="none"
     id="g178">
    <path
       d="M1370 2877 c-37 -18 -49 -68 -49 -199 -1 -111 -2 -116 -21 -111 -19 5 -20 14 -20 159 l0 154 -58 0 -58 0 -33 -75 c-18 -41 -37 -75 -41 -75 -4 0 -20 11 -36 25 -16 14 -32 25 -36 25 -4 0 -9 9 -13 19 -4 14 -21 22 -63 29 -31 5 -62 7 -70 5 -7 -3 -22 3 -33 13 -25 22 -150 26 -157 5 -3 -8 -9 -5 -19 8 -17 25 -78 29 -87 6 -3 -8 -11 -15 -17 -15 -7 0 -30 -19 -52 -42 -79 -87 -112 -118 -123 -118 -6 0 -23 -21 -38 -47 -15 -27 -38 -66 -52 -88 -49 -80 -49 -80 -49 -310 0 -121 3 -237 8 -258 4 -21 9 -50 11 -65 5 -44 18 -86 34 -109 8 -13 11 -23 7 -23 -4 0 -2 -6 4 -13 6 -8 20 -44 31 -81 12 -37 29 -75 38 -85 20 -21 51 -72 67 -111 3 -8 12 -26 20 -39 7 -13 10 -32 7 -42 -8 -19 -83 -78 -122 -95 -92 -40 -240 -120 -260 -140 -11 -11 -16 -1096 -6 -1113 7 -11 1764 -12 1771 -1 6 10 -11 16 -72 25 -30 5 -43 3 -43 -5 0 -6 -4 -8 -10 -5 -11 7 -10 7 -657 3 -264 -2 -479 0 -478 3 2 3 -17 4 -43 2 -48 -3 -245 -3 -359 0 -34 1 -67 7 -73 13 -14 14 -24 980 -11 988 5 3 6 16 4 30 -7 34 44 70 202 141 33 15 75 34 93 43 35 18 91 71 92 87 0 6 6 10 12 10 24 0 19 35 -9 73 -40 51 -86 132 -75 132 15 0 94 -90 136 -153 21 -31 46 -63 55 -70 9 -6 25 -23 34 -37 9 -13 17 -19 17 -13 0 6 -20 38 -45 71 -25 33 -51 74 -58 92 -14 32 -93 120 -108 120 -4 0 -11 9 -14 20 -3 11 -11 20 -16 20 -6 0 -7 -9 -4 -20 11 -34 -9 -22 -33 20 -12 21 -22 53 -22 69 0 17 -4 31 -9 31 -9 0 -26 48 -22 64 1 4 -3 14 -9 21 -6 7 -12 33 -13 57 -1 23 -5 45 -9 48 -4 3 -9 19 -12 35 -8 43 -10 261 -2 273 3 6 2 22 -3 36 -6 14 -7 64 -4 112 5 73 9 87 25 92 16 4 22 14 20 33 -1 3 15 21 33 39 19 19 35 43 35 55 0 13 15 33 40 51 23 17 42 41 46 57 4 19 11 27 20 23 8 -3 13 0 11 7 -1 7 7 11 20 10 14 -2 22 2 20 10 -1 6 7 12 18 12 11 0 25 3 32 8 6 4 18 4 27 1 9 -4 16 -1 16 6 0 10 3 10 15 0 11 -9 15 -10 15 0 0 7 11 10 28 9 15 -2 33 0 40 5 7 4 19 3 26 -3 7 -6 16 -8 19 -5 3 4 13 -1 22 -10 9 -9 21 -14 26 -11 4 3 21 -2 35 -12 20 -13 29 -14 32 -5 2 6 9 12 16 12 23 0 66 -25 66 -39 0 -7 6 -11 14 -8 8 3 22 -1 33 -8 13 -11 14 -14 4 -15 -10 0 -8 -7 8 -24 13 -14 20 -30 16 -36 -4 -7 -14 -1 -27 15 -19 24 -89 75 -104 75 -3 0 -4 -7 0 -15 4 -13 2 -13 -14 -5 -11 6 -21 6 -24 1 -3 -5 4 -11 17 -15 18 -5 20 -8 7 -16 -12 -8 -9 -9 11 -8 19 2 25 7 21 16 -4 12 -1 12 19 1 13 -7 19 -14 13 -16 -15 -5 -5 -43 11 -43 6 0 20 -9 29 -19 14 -15 15 -24 7 -40 -6 -11 -11 -45 -11 -75 l0 -56 74 0 75 0 3 -42 c3 -42 4 -43 41 -44 20 0 43 -6 49 -12 21 -21 38 -86 37 -142 l-2 -55 -7 58 c-4 32 -13 64 -20 70 -10 10 -12 7 -7 -10 3 -16 1 -23 -9 -23 -8 0 -14 3 -14 8 0 4 -14 23 -31 42 -21 23 -27 27 -17 10 8 -14 27 -46 42 -73 33 -56 59 -134 45 -139 -5 -2 -2 -16 6 -32 8 -15 12 -32 9 -37 -7 -11 31 -61 40 -52 3 3 2 11 -3 17 -5 6 -11 31 -14 56 -2 25 -8 53 -12 63 -13 30 10 18 23 -13 20 -44 33 -26 16 22 -7 22 -14 53 -14 69 0 15 -4 30 -9 33 -5 3 -9 31 -10 61 0 30 -4 63 -9 72 -5 10 -12 34 -15 54 -5 33 -3 37 19 42 20 3 24 0 24 -19 0 -55 81 -85 183 -68 80 14 87 35 87 252 0 192 -9 235 -55 252 -37 14 -145 12 -175 -3z m-100 -161 c0 -145 1 -154 20 -159 16 -4 20 -14 20 -46 0 -34 -3 -41 -20 -41 -17 0 -20 -7 -20 -40 l0 -40 -45 0 -45 0 0 40 0 40 -70 0 -70 0 0 50 c0 39 12 76 61 181 83 183 73 169 124 169 l45 0 0 -154z m284 141 c24 -18 35 -84 35 -217 1 -130 -13 -221 -36 -237 -18 -14 -160 -18 -179 -5 -26 17 -37 62 -41 176 -6 144 8 265 33 283 24 18 164 17 188 0z"
       id="path96" />
    <path
       d="M1151 2624 c-11 -31 -21 -58 -21 -60 0 -2 11 -4 24 -4 23 0 24 4 28 60 1 33 0 60 -3 60 -3 0 -16 -25 -28 -56z"
       id="path98" />
    <path
       d="M1435 2768 c-3 -8 -4 -72 -3 -144 l3 -129 25 0 25 0 0 140 c0 138 0 140 -23 143 -12 2 -24 -3 -27 -10z m40 -129 c0 -104 -2 -124 -15 -124 -12 0 -16 20 -18 105 -3 115 2 154 21 147 9 -3 12 -39 12 -128z"
       id="path100" />
    <path
       d="M1724 2863 c78 -266 86 -303 86 -392 l0 -91 65 0 65 0 0 83 c0 66 8 113 42 240 l43 159 3 -241 2 -241 115 0 115 0 0 65 0 65 -55 0 -55 0 0 35 c0 33 1 34 30 29 16 -4 41 -3 55 0 23 6 25 11 25 66 l0 60 -55 0 c-54 0 -55 0 -55 30 0 30 1 30 55 30 l55 0 0 60 0 60 -178 0 -179 0 -13 -57 -13 -58 -15 58 -14 57 -65 0 c-57 0 -64 -2 -59 -17z m131 -74 c9 -44 19 -78 22 -76 2 3 12 38 21 78 l17 74 48 3 c26 2 47 0 47 -3 0 -3 -18 -70 -40 -149 -33 -119 -40 -158 -40 -234 l0 -92 -50 0 -50 0 0 81 c0 68 -8 109 -45 235 -25 83 -45 155 -45 158 0 3 22 6 49 6 l48 0 18 -81z m395 31 l0 -50 -55 0 -55 0 0 -45 0 -45 55 0 55 0 0 -45 0 -45 -55 0 -55 0 0 -51 0 -52 55 6 55 6 0 -55 0 -54 -105 0 -105 0 0 240 0 240 105 0 105 0 0 -50z"
       id="path102" />
    <path
       d="M2320 2877 c0 -2 -11 -110 -25 -241 -14 -131 -25 -242 -25 -247 0 -5 27 -9 59 -9 l60 0 6 55 c5 37 12 55 21 55 10 0 14 -15 14 -55 l0 -55 65 0 c36 0 65 2 65 4 0 12 -41 419 -45 454 l-6 42 -95 0 c-52 0 -94 -1 -94 -3z m181 -34 c0 -16 10 -124 22 -240 l23 -213 -47 0 c-44 0 -47 2 -53 31 -3 17 -6 42 -6 56 0 21 -4 24 -27 21 -26 -3 -28 -7 -31 -55 l-3 -53 -50 0 c-43 0 -50 3 -45 18 2 9 15 117 27 240 l23 222 83 0 83 0 1 -27z"
       id="path104" />
    <path
       d="M2408 2770 c-4 -8 -9 -50 -12 -92 -6 -76 -5 -78 17 -78 23 0 23 1 15 73 -12 109 -14 114 -20 97z"
       id="path106" />
    <path
       d="M2570 2630 l0 -250 60 0 60 0 0 92 c0 50 3 89 6 86 3 -3 11 -44 17 -89 l12 -84 64 -3 63 -3 -7 77 c-4 43 -13 97 -20 120 -10 35 -10 45 0 54 17 14 26 115 16 170 -14 70 -34 80 -162 80 l-109 0 0 -250z m213 229 c35 -16 47 -49 47 -128 0 -53 -4 -74 -20 -94 -11 -14 -16 -28 -11 -31 5 -3 14 -39 20 -79 7 -39 14 -87 17 -104 l5 -33 -50 0 c-56 0 -56 0 -66 95 -9 80 -14 95 -31 95 -11 0 -14 -19 -14 -95 l0 -95 -50 0 -50 0 0 240 0 240 90 0 c49 0 100 -5 113 -11z"
       id="path108" />
    <path
       d="M2680 2719 c0 -57 1 -60 22 -57 48 7 46 118 -2 118 -18 0 -20 -6 -20 -61z m40 1 c0 -29 -4 -40 -15 -40 -11 0 -15 11 -15 40 0 29 4 40 15 40 11 0 15 -11 15 -40z"
       id="path110" />
    <path
       d="M694 2748 c4 -19 2 -28 -6 -28 -10 0 -10 -2 1 -9 8 -5 9 -11 3 -15 -6 -3 -13 -2 -17 4 -9 14 -25 3 -19 -13 3 -8 30 -14 77 -15 39 -1 89 -5 110 -8 44 -6 46 0 11 32 -28 27 -43 32 -24 9 7 -8 8 -15 2 -15 -5 0 -15 7 -22 15 -7 8 -17 15 -22 15 -6 0 -5 -7 2 -15 10 -12 9 -15 -6 -15 -24 1 -69 26 -68 37 1 4 -5 17 -13 28 -14 19 -15 19 -9 -7z"
       id="path112" />
    <path
       d="M515 2656 c16 -11 17 -16 7 -29 -11 -13 -10 -15 10 -10 13 3 28 9 33 14 6 4 27 10 48 14 27 5 35 11 28 18 -7 7 -24 7 -56 0 -25 -6 -48 -6 -51 -2 -3 5 -13 9 -22 9 -13 0 -13 -2 3 -14z"
       id="path114" />
    <path
       d="M887 2195 c-23 -17 -22 -48 1 -41 9 3 31 8 47 11 61 12 120 28 127 34 14 12 -159 8 -175 -4z"
       id="path116" />
    <path
       d="M454 2178 c-9 -14 23 -38 50 -38 32 0 90 -18 111 -34 19 -14 19 -15 -5 -10 -17 4 -11 -3 20 -21 57 -34 50 -24 69 -94 15 -54 18 -58 34 -46 18 13 18 15 -2 54 -12 22 -21 48 -21 58 0 32 -26 58 -89 88 -34 17 -61 34 -61 38 0 5 -4 6 -9 2 -5 -3 -12 -1 -16 5 -9 14 -42 13 -48 -2 -4 -10 -6 -10 -6 0 -1 15 -17 16 -27 0z"
       id="path118" />
    <path
       d="M795 2131 c-7 -12 31 -25 45 -16 5 3 10 10 10 16 0 12 -47 12 -55 0z"
       id="path120" />
    <path
       d="M976 2130 c29 -4 70 -18 93 -31 22 -12 44 -20 47 -16 4 4 -4 11 -17 17 -13 6 -35 17 -49 25 -14 8 -47 14 -75 14 l-50 -1 51 -8z"
       id="path122" />
    <path
       d="M866 2107 c-22 -11 -35 -22 -29 -24 6 -2 28 8 48 22 45 30 35 32 -19 2z"
       id="path124" />
    <path
       d="M1589 2105 c-14 -7 -31 -26 -38 -42 -16 -36 -26 -217 -16 -317 6 -65 11 -83 34 -109 27 -29 31 -30 105 -30 70 0 80 2 103 26 22 22 27 38 34 119 10 103 3 255 -13 306 -7 24 -20 38 -44 48 -42 18 -131 17 -165 -1z m185 -38 c19 -25 21 -44 24 -180 4 -176 -1 -211 -33 -243 -21 -20 -34 -24 -90 -24 -56 0 -69 4 -90 24 -32 32 -37 67 -33 248 3 150 4 157 28 183 22 24 29 26 99 23 68 -3 76 -5 95 -31z"
       id="path126" />
    <path
       d="M1645 1988 c-3 -13 -4 -74 -3 -137 3 -97 6 -115 21 -125 34 -21 47 16 47 133 0 131 -5 151 -36 151 -16 0 -25 -7 -29 -22z m45 -124 c0 -99 -3 -124 -14 -124 -25 0 -33 212 -9 253 15 25 23 -20 23 -129z"
       id="path128" />
    <path
       d="M1837 2114 c-4 -4 -7 -119 -7 -256 l0 -248 110 0 110 0 0 65 0 65 -50 0 -50 0 -2 188 -3 187 -50 3 c-28 2 -54 0 -58 -4z m103 -199 l0 -185 50 0 50 0 0 -55 0 -55 -100 0 -100 0 0 240 0 240 50 0 50 0 0 -185z"
       id="path130" />
    <path
       d="M2068 2114 c-5 -4 -8 -119 -8 -256 l0 -248 111 0 c108 0 111 1 139 28 36 36 44 95 38 270 -4 133 -18 182 -55 197 -27 10 -217 19 -225 9z m229 -38 l28 -24 3 -179 c4 -247 -1 -253 -187 -253 -63 0 -72 2 -67 16 3 9 6 117 6 240 l0 224 94 0 c86 0 98 -2 123 -24z"
       id="path132" />
    <path
       d="M2177 2003 c-4 -3 -7 -69 -7 -145 0 -137 0 -138 23 -138 41 0 47 17 47 141 0 94 -3 121 -16 133 -16 17 -36 21 -47 9z m43 -138 c0 -118 -1 -125 -20 -125 -19 0 -20 7 -20 125 0 118 1 125 20 125 19 0 20 -7 20 -125z"
       id="path134" />
    <path
       d="M898 2089 c-36 -19 -50 -39 -27 -39 5 0 7 5 3 12 -5 7 -2 9 8 5 9 -3 21 0 27 6 8 8 14 8 23 -1 14 -14 54 -16 62 -3 3 5 25 7 49 5 l42 -5 -49 21 c-39 17 -51 18 -57 8 -7 -10 -9 -10 -9 0 0 17 -29 14 -72 -9z"
       id="path136" />
    <path
       d="M1369 2101 c-3 -7 -1 -44 4 -81 5 -38 7 -88 3 -113 -7 -46 -42 -110 -61 -111 -6 -1 -11 30 -12 69 -1 39 -6 83 -10 100 -6 19 -8 -14 -5 -93 3 -74 0 -127 -6 -134 -5 -7 -24 -55 -41 -107 -17 -52 -38 -106 -47 -120 l-17 -26 27 24 26 24 0 -70 0 -70 63 -21 c34 -12 54 -21 45 -22 -17 0 -18 -19 -18 -255 l0 -255 65 0 65 0 2 228 c1 125 3 210 5 190 4 -36 6 -38 39 -38 l34 0 0 -190 0 -190 65 0 65 0 0 191 0 191 33 -4 32 -3 0 65 0 65 -132 3 c-122 2 -133 1 -133 -15 -1 -17 -1 -17 -14 0 -7 9 -22 17 -34 17 -31 0 -148 56 -155 74 -23 59 45 332 92 372 31 26 56 102 53 164 -3 58 -27 159 -33 141z m61 -1011 l0 -240 -50 0 -50 0 0 240 0 240 50 0 50 0 0 -240z m288 193 l-3 -48 -37 3 -38 4 0 -197 0 -196 -46 3 -45 3 -2 190 -2 190 -37 -1 -38 -1 0 48 0 49 126 0 125 0 -3 -47z"
       id="path138" />
    <path
       d="M495 2068 c-11 -7 -40 -15 -65 -18 l-45 -6 39 -17 c37 -16 39 -16 56 3 15 17 18 18 32 4 18 -18 68 -9 68 13 0 10 6 12 23 7 12 -3 24 -11 25 -15 2 -5 8 -9 13 -9 19 0 -3 21 -38 35 -44 19 -44 19 -36 -2 6 -17 5 -17 -14 0 -23 20 -31 21 -58 5z"
       id="path140" />
    <path
       d="M860 2022 c0 -30 118 -44 164 -20 30 15 29 16 -35 15 -35 -1 -79 2 -96 7 -21 5 -33 5 -33 -2z"
       id="path142" />
    <path
       d="M399 2001 c18 -33 126 -71 179 -63 40 6 23 22 -25 22 -48 0 -124 28 -137 49 -12 20 -28 13 -17 -8z"
       id="path144" />
    <path
       d="M880 1900 c0 -5 7 -10 15 -10 8 0 50 -35 93 -77 43 -43 88 -87 100 -97 22 -19 22 -19 22 2 0 30 -191 192 -227 192 -1 0 -3 -4 -3 -10z"
       id="path146" />
    <path
       d="M660 1880 c-23 -23 -21 -69 4 -119 22 -41 38 -47 89 -30 31 10 41 11 45 1 6 -20 20 -14 24 10 2 16 13 25 40 31 20 5 39 15 42 24 9 23 -55 6 -76 -20 -14 -18 -19 -20 -29 -9 -15 14 -33 16 -24 2 3 -5 -1 -10 -9 -10 -18 0 -46 54 -46 90 0 25 -16 50 -32 50 -4 0 -17 -9 -28 -20z m40 -51 c13 -46 7 -58 -18 -43 -18 12 -27 46 -18 70 10 26 25 15 36 -27z"
       id="path148" />
    <path
       d="M510 1720 c-8 -5 -12 -11 -10 -14 8 -7 60 6 60 15 0 12 -31 11 -50 -1z"
       id="path150" />
    <path
       d="M1016 1703 c-4 -4 -42 -11 -84 -14 -42 -4 -131 -12 -196 -18 -83 -9 -122 -9 -129 -2 -6 6 -18 11 -26 11 -25 0 17 -38 57 -51 19 -6 51 -21 71 -33 27 -15 53 -21 107 -21 40 0 67 4 61 8 -8 5 -4 7 8 5 21 -3 38 8 88 55 32 31 62 35 71 10 5 -12 9 -14 18 -5 10 10 6 18 -13 37 -14 14 -29 22 -33 18z m-56 -43 c0 -28 -142 -75 -195 -64 -34 7 -75 30 -75 43 0 4 26 7 58 7 31 -1 63 3 69 7 7 5 18 7 25 5 7 -3 22 -2 33 3 29 11 85 11 85 -1z"
       id="path152" />
    <path
       d="M674 1534 c37 -34 51 -42 57 -32 7 10 9 10 9 -1 0 -11 3 -11 15 -1 11 9 15 10 15 0 0 -7 14 -11 38 -10 20 1 39 1 42 0 3 -1 14 -3 24 -5 17 -3 18 -2 3 12 -10 10 -36 16 -70 18 -40 1 -69 10 -110 33 -31 18 -60 32 -64 32 -5 -1 14 -21 41 -46z"
       id="path154" />
    <path
       d="M1005 1340 c-3 -5 -27 -22 -53 -37 -46 -27 -152 -48 -152 -30 0 5 -6 7 -12 5 -7 -3 -19 1 -26 9 -8 7 -18 10 -24 7 -6 -4 -4 -13 6 -23 27 -26 140 -22 198 8 48 25 101 71 80 71 -6 0 -14 -4 -17 -10z"
       id="path156" />
    <path
       d="M1077 1343 c-4 -3 -7 -118 -7 -255 l0 -248 65 0 65 0 0 89 0 90 53 3 52 3 0 60 0 60 -52 3 -53 3 0 35 0 34 55 0 55 0 0 65 0 65 -113 0 c-63 0 -117 -3 -120 -7z m219 -61 l-1 -47 -55 0 -55 0 0 -50 0 -50 53 0 52 1 0 -48 0 -48 -55 0 -55 0 0 -95 0 -95 -45 0 -45 0 0 243 0 242 104 -3 103 -3 -1 -47z"
       id="path158" />
    <path
       d="M1740 1095 l0 -255 55 0 54 0 3 107 3 106 45 -104 c45 -104 45 -104 83 -107 l37 -3 0 255 0 256 -55 0 -54 0 -3 -62 -3 -63 -24 63 -23 62 -59 0 -59 0 0 -255z m143 148 l36 -88 1 88 0 87 45 0 45 0 0 -241 0 -240 -26 3 c-22 3 -32 19 -82 133 l-57 130 -3 -132 -3 -133 -44 0 -45 0 0 240 0 240 49 0 49 0 35 -87z"
       id="path160" />
    <path
       d="M2047 1344 c-4 -4 -7 -119 -7 -256 l0 -248 120 0 120 0 0 65 0 65 -55 0 -55 0 0 35 0 35 55 0 56 0 -3 58 -3 57 -55 5 c-51 5 -55 7 -55 30 0 23 4 25 55 30 l55 5 0 60 0 60 -111 3 c-60 1 -113 -1 -117 -4z m215 -59 l3 -45 -58 0 -58 0 3 -47 3 -48 53 1 52 2 0 -49 0 -49 -55 0 -55 0 0 -45 0 -45 55 0 55 0 0 -55 0 -55 -100 0 -100 0 0 240 0 240 99 0 99 0 4 -45z"
       id="path162" />
    <path
       d="M2344 1340 c-41 -16 -54 -49 -54 -136 0 -97 12 -117 89 -154 52 -24 75 -60 53 -82 -15 -15 -32 -1 -32 26 0 20 -6 25 -45 30 -25 4 -49 4 -55 1 -14 -8 -13 -108 1 -138 16 -34 49 -47 124 -47 53 0 69 4 92 24 26 23 28 30 32 115 4 111 -6 130 -87 169 -46 22 -57 32 -57 51 0 37 24 38 31 2 6 -30 9 -31 55 -31 43 0 49 3 49 21 0 11 5 17 10 14 6 -3 10 -25 10 -49 0 -49 14 -66 88 -106 39 -21 48 -30 50 -57 4 -43 -26 -46 -34 -4 -7 31 -41 45 -83 34 -19 -5 -21 -12 -21 -70 0 -55 4 -67 25 -88 21 -22 33 -25 90 -25 115 0 145 34 144 160 0 81 -15 106 -84 143 -48 26 -61 37 -63 60 -2 19 1 27 12 27 11 0 16 -9 16 -30 0 -30 1 -30 55 -30 l55 0 0 59 c0 83 -25 112 -103 119 -100 8 -146 -19 -148 -85 0 -31 -2 -34 -9 -18 -5 11 -11 32 -14 47 -4 17 -18 34 -36 43 -31 16 -121 19 -156 5z m121 -10 c51 -12 65 -32 65 -97 l0 -53 -39 0 c-36 0 -40 3 -43 28 -2 21 -9 28 -31 30 -27 3 -28 2 -25 -35 3 -35 7 -40 63 -70 69 -36 84 -62 85 -141 0 -107 -42 -149 -141 -140 -70 7 -93 32 -94 100 l0 53 37 3 c33 3 37 1 43 -28 6 -26 11 -31 33 -28 24 3 27 7 27 43 0 39 -2 41 -64 75 -74 40 -86 64 -79 163 5 65 19 85 69 97 46 11 48 11 94 0z m310 -21 c14 -14 19 -33 20 -71 l0 -53 -36 -3 c-33 -3 -37 -1 -42 27 -5 25 -12 31 -31 31 -16 0 -27 -7 -31 -20 -11 -34 3 -56 47 -76 24 -10 55 -30 70 -42 27 -23 28 -28 28 -107 0 -105 -19 -134 -92 -142 -98 -11 -138 18 -138 102 l0 55 39 0 c36 0 40 -3 43 -27 3 -24 8 -28 33 -28 25 0 30 4 33 28 4 36 -10 53 -69 83 -67 33 -79 55 -79 140 0 110 31 138 140 127 25 -3 54 -14 65 -24z"
       id="path164" />
    <path
       d="M900 1071 c-33 -6 -34 -7 -10 -13 30 -9 100 1 100 13 0 10 -36 10 -90 0z"
       id="path166" />
    <path
       d="M2104 788 c4 -24 11 -44 16 -46 6 -2 10 -8 10 -13 0 -6 -4 -7 -10 -4 -5 3 -10 1 -10 -4 0 -6 3 -11 8 -11 9 0 30 -67 43 -135 20 -104 27 -133 53 -225 15 -52 32 -100 37 -106 5 -7 12 -20 14 -30 2 -11 9 -38 15 -62 6 -24 8 -47 6 -51 -8 -13 -106 -11 -106 2 0 7 -5 6 -15 -3 -11 -12 -35 -14 -114 -10 -134 7 -144 17 -126 135 2 17 7 53 10 82 3 29 10 67 16 85 9 33 13 145 5 137 -3 -3 -8 -27 -11 -54 -3 -28 -8 -60 -10 -71 -3 -12 -16 -84 -30 -160 -14 -77 -28 -149 -31 -161 l-6 -22 236 -3 c180 -2 236 0 236 9 0 7 -22 79 -49 160 -52 157 -70 220 -97 348 -27 126 -54 228 -66 242 -21 26 -31 14 -24 -29z"
       id="path168" />
    <path
       d="M1530 615 c0 -8 -5 -15 -11 -15 -5 0 -7 -4 -4 -10 8 -12 45 10 45 27 0 7 -7 13 -15 13 -8 0 -15 -7 -15 -15z"
       id="path170" />
    <path
       d="M1596 593 c-4 -5 -15 -8 -24 -9 -32 -2 -82 -17 -82 -24 0 -5 28 -10 63 -13 34 -3 76 -8 92 -12 30 -6 30 -6 10 12 -12 10 -24 26 -28 36 -7 18 -19 22 -31 10z"
       id="path172" />
    <path
       d="M1550 522 c0 -12 28 -48 33 -42 8 8 -11 50 -23 50 -5 0 -10 -4 -10 -8z"
       id="path174" />
    <path
       d="M1596 512 c-3 -6 -1 -14 5 -17 7 -5 3 -15 -12 -31 l-22 -24 26 0 c32 0 36 -16 5 -26 -19 -6 -20 -7 -4 -16 12 -6 22 -6 32 3 12 9 20 9 39 -1 27 -14 49 -5 25 10 -8 5 -19 11 -23 12 -7 3 -11 25 -16 78 -1 13 -2 13 -11 0 -8 -13 -11 -12 -23 4 -9 12 -16 15 -21 8z"
       id="path176" />
  </g>
  <path
     style="fill:#ffffff;stroke-width:0.389484"
     d="m 157.35151,75.754625 v -5.258033 h -9.19449 -9.19449 l 0.17399,-5.93963 c 0.16591,-5.663459 0.24189,-6.129114 1.6341,-10.014899 1.71282,-4.780631 13.2815,-30.371123 15.12192,-33.450433 1.92736,-3.224774 2.71475,-3.561668 8.32835,-3.563397 l 4.72721,-0.0015 0.17888,18.987342 c 0.20062,21.296195 0.23727,21.609752 2.65952,22.750302 2.15648,1.015408 2.45013,1.612557 2.61971,5.32719 0.17927,3.927026 -0.25074,5.406687 -1.65631,5.699361 -0.54312,0.11309 -1.41779,0.294621 -1.94373,0.403396 -1.28113,0.264978 -1.76519,2.103673 -1.76797,6.715564 l -0.002,3.602726 h -5.84226 -5.84226 z m -1.00212,-17.554014 c 0.33631,-0.336303 0.73669,-1.081191 0.88974,-1.655306 0.43644,-1.63717 0.36527,-13.478258 -0.0824,-13.702072 -1.01997,-0.509984 -7.30428,15.028557 -6.32862,15.648085 0.90322,0.573523 4.86565,0.364892 5.52124,-0.290707 z"
     id="path428"
     transform="scale(0.75)" />
  <path
     style="fill:#ffffff;stroke-width:0.389484"
     d="m 185.112,80.659677 c -2.0425,-0.526228 -3.09069,-1.441099 -4.16359,-3.634026 -2.16314,-4.421308 -3.05185,-12.599318 -3.05857,-28.145417 -0.006,-14.805467 0.92496,-22.945672 3.14169,-27.458618 0.96371,-1.961981 1.23239,-2.205938 3.19437,-2.9004 1.84188,-0.651951 3.23409,-0.76055 9.93184,-0.774731 11.97703,-0.02536 13.76128,0.653228 15.36435,5.843371 1.50742,4.88046 1.77294,8.609725 1.77294,24.900894 0,16.585624 -0.36248,21.086399 -2.15696,26.781807 -1.04198,3.3071 -1.7926,4.152421 -4.30142,4.844136 -2.41369,0.665488 -17.62398,1.084199 -19.72465,0.542984 z m 13.11822,-28.760943 c -0.0181,-16.369725 -0.28232,-20.816877 -1.29716,-21.83172 -0.40245,-0.402452 -1.31243,-0.616036 -2.62462,-0.616036 -3.58915,0 -3.46169,-0.613462 -3.45898,16.648646 0.001,8.170036 0.1149,16.300571 0.25247,18.067854 l 0.25014,3.213243 h 3.44763 3.44762 z"
     id="path430"
     transform="scale(0.75)" />
  <path
     style="fill:#ffffff;stroke-width:0.389484"
     d="m 244.20323,73.709834 c -0.005,-12.571953 -0.55847,-15.507696 -7.39127,-39.240506 -2.92404,-10.156282 -4.46359,-16.110611 -4.22958,-16.358325 0.20236,-0.214216 3.03201,-0.45079 6.2881,-0.52572 l 5.92017,-0.136235 0.90431,4.225817 c 1.79584,8.39187 3.62875,15.640542 4.12728,16.322335 0.45794,0.626258 0.57238,0.504193 1.14501,-1.221293 0.34992,-1.054402 1.49906,-5.568905 2.55365,-10.032229 1.05458,-4.463324 2.02489,-8.222606 2.15624,-8.353961 0.35771,-0.357701 8.75756,-0.828864 10.43776,-0.585473 0.88353,0.127988 1.46056,0.424865 1.46056,0.751447 0,0.296929 -1.75938,6.978521 -3.90973,14.847981 -5.90556,21.612065 -6.59665,25.810209 -6.603,40.111421 l -0.003,7.497565 h -6.42649 -6.42648 l -0.003,-7.302824 z"
     id="path432"
     transform="scale(0.75)" />
  <path
     style="fill:#ffffff;stroke-width:0.389484"
     d="M 272.24927,49.269718 V 17.526777 h 13.82668 13.82668 v 6.426485 6.426485 h -7.4002 -7.40019 v 6.231743 6.231743 h 7.40019 7.4002 v 5.842259 5.842259 h -7.4002 -7.40019 v 7.010711 c 0,5.350913 0.11526,7.009822 0.48685,7.00696 0.64171,-0.0049 10.53897,-1.07771 12.65823,-1.372028 l 1.65531,-0.229889 v 7.034579 7.034574 h -13.82668 -13.82668 z"
     id="path434"
     transform="scale(0.75)" />
  <path
     style="fill:#ffffff;stroke-width:0.389484"
     d="m 305.24495,80.525803 c -0.60425,-0.453417 -0.59599,-0.901488 0.12029,-6.523856 0.71939,-5.646722 3.1077,-27.991331 5.11009,-47.809152 l 0.87562,-8.666018 h 10.78022 10.78022 l 0.24343,1.217137 c 0.13388,0.669426 0.24343,2.1235 0.24343,3.231277 0,3.132364 4.5122,48.823944 5.66669,57.382161 l 0.2233,1.655306 h -5.11277 c -4.91439,0 -6.40869,-0.278839 -7.09601,-1.324128 -0.50475,-0.76765 -1.12388,-4.404273 -1.43616,-8.435658 -0.20664,-2.667676 -0.48285,-4.068307 -0.85186,-4.319591 -0.30033,-0.204522 -1.59767,-0.276989 -2.88297,-0.161036 -3.86812,0.348955 -4.07903,0.816405 -4.71163,10.442945 l -0.24955,3.797468 h -5.52676 c -3.81571,0 -5.72763,-0.150726 -6.17558,-0.486855 z m 19.11894,-29.658135 c 0.17409,-3.373724 -1.82069,-20.567246 -2.46041,-21.206965 -0.38955,-0.38955 -1.03321,0.637553 -1.38739,2.213875 -0.55245,2.458797 -1.52875,13.433575 -1.52875,17.185057 0,2.162015 0.17302,3.537922 0.484,3.8489 0.30061,0.300614 1.29673,0.440808 2.62902,0.370009 l 2.14501,-0.113987 z"
     id="path436"
     transform="scale(0.75)" />
  <path
     style="fill:#ffffff;stroke-width:0.389484"
     d="M 344.3038,49.269718 V 17.526777 l 7.88705,3.26e-4 c 7.99493,3.3e-4 15.25319,0.485836 17.92137,1.198765 0.80613,0.215393 2.08714,0.937274 2.84671,1.60418 2.98724,2.622834 4.04476,6.635634 4.05475,15.385932 0.008,7.1271 -0.37113,9.11234 -2.31568,12.120937 -1.96611,3.041947 -2.15442,3.745734 -1.41767,5.29832 0.89537,1.886842 1.581,5.143489 3.32713,15.803419 0.85969,5.248296 1.66278,10.111977 1.78465,10.808179 l 0.22157,1.265823 h -5.69512 -5.69513 l -1.0958,-1.095793 c -1.28845,-1.288452 -1.68353,-2.958018 -2.55177,-10.783467 -1.09859,-9.901569 -1.74211,-12.318559 -3.49211,-13.115914 -0.8317,-0.378947 -1.1183,-0.349469 -1.63604,0.168273 -1.00602,1.006021 -1.24305,3.736362 -1.26773,14.602948 l -0.0232,10.223953 h -6.42649 -6.42648 z m 18.49929,-5.373681 c 1.56068,-1.560686 2.14106,-3.490099 2.13263,-7.089805 -0.0108,-4.608673 -1.99931,-7.594937 -5.0574,-7.594937 -2.34321,0 -2.51038,0.475986 -2.65395,7.556476 -0.0765,3.770882 0.0361,6.69714 0.28247,7.341285 0.36522,0.955006 0.60482,1.07108 2.21088,1.07108 1.51815,0 2.0031,-0.201833 3.08537,-1.284099 z"
     id="path438"
     transform="scale(0.75)" />
  <path
     style="fill:#ffffff;stroke-width:0.389484"
     d="m 277.7596,183.39035 c -1.10013,-0.31666 -1.26635,-0.51037 -1.05605,-1.23069 0.33605,-1.15108 0.95835,-31.91062 0.98059,-48.4693 l 0.0179,-13.33982 h 10.69164 c 6.1505,0 11.52034,0.17772 12.64272,0.41843 2.07978,0.44603 3.83171,1.50084 6.89112,4.14901 l 1.90198,1.64632 0.31144,17.82788 c 0.46126,26.404 -0.14009,32.0929 -3.77683,35.72965 -2.01565,2.01564 -4.15781,2.78836 -9.18787,3.31425 -4.64824,0.48596 -17.67603,0.45529 -19.41664,-0.0457 z m 18.28229,-13.29756 c 1.08632,-0.67841 1.8266,-2.49079 2.32227,-5.68544 0.57447,-3.70256 0.29046,-26.13649 -0.35633,-28.147 -0.57784,-1.79615 -3.19521,-4.21 -4.63018,-4.27015 -1.78057,-0.0746 -2.60242,0.0838 -3.14347,0.60613 -1.1965,1.15502 -1.5764,33.45389 -0.4321,36.73645 0.23309,0.66863 0.71693,1.30151 1.07522,1.4064 0.99892,0.29245 4.32856,-0.12427 5.16459,-0.64639 z"
     id="path440"
     transform="scale(0.75)" />
  <path
     style="fill:#ffffff;stroke-width:0.389484"
     d="m 245.37488,152.09348 v -31.74294 h 6.62123 6.62122 v 24.53748 24.53749 h 6.62123 6.62123 v 7.20545 7.20546 h -13.24246 -13.24245 z"
     id="path442"
     transform="scale(0.75)" />
  <path
     style="fill:#ffffff;stroke-width:0.389484"
     d="m 216.84628,183.45649 c -3.81067,-0.68868 -7.18819,-3.92938 -8.49245,-8.14844 -1.25067,-4.04572 -1.58965,-12.59906 -1.15423,-29.12429 0.48754,-18.50348 0.63385,-19.39273 3.73644,-22.70965 2.82125,-3.01615 3.94586,-3.29293 12.16951,-2.99505 8.38011,0.30355 10.29198,0.77451 12.33806,3.03927 3.34297,3.70026 3.68602,6.06924 3.96884,27.40669 0.25276,19.0701 0.0241,22.29787 -1.85417,26.1723 -1.32524,2.73366 -3.81616,5.16167 -6.07766,5.92414 -1.79481,0.60513 -12.01243,0.90887 -14.63434,0.43503 z m 9.11481,-14.03098 c 1.62635,-2.19327 2.04385,-6.03008 2.05548,-18.88997 0.0118,-13.02155 -0.28065,-15.73444 -1.89879,-17.61564 -0.75819,-0.88145 -1.18803,-1.03072 -2.89397,-1.00498 -4.17058,0.0629 -4.36235,0.75065 -4.35627,15.62231 0.005,11.57393 0.39171,18.4231 1.15419,20.42858 0.97956,2.57643 4.47439,3.43534 5.93936,1.4597 z"
     id="path444"
     transform="scale(0.75)" />
  <path
     style="fill:#ffffff;stroke-width:0.389484"
     d="m 145.66638,254.43038 -6.2e-4,-32.2298 8.08241,0.24851 c 4.44532,0.13667 10.49234,0.26812 13.43781,0.29211 l 5.3554,0.0436 v 6.23174 6.23175 h -7.40019 -7.4002 v 6.81596 6.81597 h 7.01071 7.01071 v 6.23175 6.23174 h -7.40019 -7.40019 v 12.65823 12.65823 h -5.64752 -5.64752 z"
     id="path446"
     transform="scale(0.75)" />
  <path
     style="fill:#ffffff;stroke-width:0.389484"
     d="m 177.60467,254.72249 v -31.93768 h 6.42649 6.42648 v 31.93768 31.93769 h -6.42648 -6.42649 z"
     id="path448"
     transform="scale(0.75)" />
  <path
     style="fill:#ffffff;stroke-width:0.389484"
     d="m 211.88662,286.18953 c -2.67365,-0.19718 -4.93082,-0.42815 -5.01593,-0.51326 -0.0851,-0.0851 -0.224,-9.66973 -0.30865,-21.29915 -0.0846,-11.62942 -0.25428,-22.9409 -0.37695,-25.13661 l -0.22305,-3.99221 h -4.83107 -4.83107 v -6.23175 -6.23174 h 16.57932 c 15.60377,0 16.56794,0.0401 16.3861,0.6816 -0.10627,0.37488 -0.31355,3.18865 -0.46062,6.25283 l -0.2674,5.57123 -1.0262,-0.19545 c -0.5644,-0.1075 -2.51597,-0.30481 -4.33681,-0.43846 -1.82083,-0.13366 -3.61733,-0.3299 -3.99221,-0.43611 -0.64432,-0.18254 -0.68159,1.24616 -0.68159,26.12331 v 26.31642 l -0.87634,-0.0561 c -0.48199,-0.0308 -3.06387,-0.2174 -5.73753,-0.41458 z"
     id="path450"
     transform="scale(0.75)" />
  <path
     style="fill:#ffffff;stroke-width:0.389484"
     d="m 233.69036,254.71284 v -31.94733 l 6.29854,0.10702 6.29854,0.10702 4.70438,11.65891 c 5.56462,13.79083 5.21444,13.91229 5.25974,-1.82444 l 0.0289,-10.02921 h 5.84226 5.84226 v 31.93023 31.93023 l -1.85005,-0.23506 c -1.01753,-0.12928 -2.28822,-0.43264 -2.82376,-0.67414 -1.73304,-0.7815 -4.10957,-5.13102 -9.67494,-17.70702 -3.00176,-6.78307 -5.94483,-13.38445 -6.54014,-14.66975 l -1.08239,-2.3369 -0.30997,9.93184 c -0.17048,5.46251 -0.41662,13.48101 -0.54698,17.81889 l -0.23702,7.88705 h -5.60467 -5.60467 z"
     id="path452"
     transform="scale(0.75)" />
  <path
     style="fill:#ffffff;stroke-width:0.389484"
     d="m 274.97566,254.72249 v -31.93768 h 13.00118 13.00119 l 0.25893,4.18695 c 0.14241,2.30283 0.35851,4.93184 0.48023,5.84226 l 0.22131,1.65531 h -7.87878 -7.87878 l 0.22782,2.04479 c 0.1253,1.12463 0.34332,4.01655 0.48447,6.42648 l 0.25665,4.3817 h 6.9606 6.9606 v 6.23174 6.23174 h -7.20545 -7.20545 v 6.23175 6.23174 h 7.20545 7.20545 v 7.20545 7.20546 h -13.04771 -13.04771 z"
     id="path454"
     transform="scale(0.75)" />
  <path
     style="fill:#ffffff;stroke-width:0.389484"
     d="m 316.80185,285.71367 c -3.10827,-0.70577 -5.1993,-1.80014 -6.69543,-3.50412 -1.85524,-2.11301 -2.41411,-4.60392 -2.41411,-10.75977 v -5.33191 l 3.86594,-0.27408 c 4.61475,-0.32717 5.29181,-0.0706 5.87158,2.22515 1.19909,4.74806 2.10304,5.64745 5.20812,5.18182 2.98212,-0.4472 3.3601,-1.08981 3.3601,-5.71257 0,-2.91377 -0.16224,-4.20677 -0.62644,-4.9926 -0.72191,-1.2221 -2.7676,-2.65089 -7.83233,-5.47045 -6.63055,-3.69125 -8.91008,-6.05527 -10.04671,-10.41907 -1.0957,-4.20668 -0.4887,-14.49296 1.07064,-18.14332 1.47018,-3.44161 4.06971,-4.9691 10.76559,-6.32586 2.87437,-0.58242 3.21713,-0.57293 6.89182,0.19066 6.49141,1.34891 9.22897,3.20609 10.29276,6.98267 0.21829,0.77496 0.51046,4.08184 0.64928,7.34864 l 0.25238,5.93963 -3.07948,-0.017 c -3.87347,-0.0213 -6.40355,-0.49979 -7.00701,-1.32508 -0.25759,-0.35228 -0.5888,-1.44372 -0.73601,-2.42542 -0.14722,-0.9817 -0.36244,-2.03188 -0.47828,-2.33374 -0.51601,-1.3447 -5.21852,-2.50138 -6.77747,-1.66705 -0.80148,0.42894 -0.83631,0.64476 -0.62653,3.88267 0.3459,5.33905 1.17701,6.38034 8.07518,10.11732 2.17484,1.17819 4.94679,2.93767 6.15987,3.90996 4.17904,3.34949 5.83371,8.55087 5.385,16.92743 -0.45487,8.49161 -2.71723,12.93295 -7.74534,15.20518 -2.15331,0.9731 -2.97871,1.11831 -6.92382,1.21807 -2.82223,0.0714 -5.35953,-0.0867 -6.8593,-0.4272 z"
     id="path456"
     transform="scale(0.75)" />
  <path
     style="fill:#ffffff;stroke-width:0.389484"
     d="m 350.7974,285.73717 c -2.83813,-0.79979 -4.95597,-2.4841 -6.20445,-4.93434 -1.34624,-2.64213 -1.84193,-5.59444 -1.84483,-10.98783 l -0.002,-4.18696 h 4.47907 c 5.26688,0 5.7666,0.27606 6.18309,3.41572 0.41469,3.12612 1.12088,3.70955 4.49011,3.70955 3.77737,0 4.43119,-0.6104 4.64155,-4.33326 0.26922,-4.76451 -1.1677,-6.42086 -9.3956,-10.83036 -7.704,-4.12873 -9.31451,-6.31029 -10.08276,-13.65784 -0.53027,-5.07147 -0.0187,-11.9517 1.12314,-15.10636 0.3997,-1.10425 1.40562,-2.65182 2.32908,-3.58319 2.28653,-2.30611 4.83887,-3.00981 10.64323,-2.93441 7.52925,0.0978 12.37822,1.97078 14.07688,5.43734 0.80932,1.65163 0.92479,2.52321 1.05064,7.93099 l 0.1414,6.07544 -2.08432,0.25029 c -5.14804,0.61819 -6.99143,0.22451 -7.46993,-1.5953 -0.0982,-0.37361 -0.39726,-1.51847 -0.6645,-2.54415 -0.60033,-2.30407 -1.86931,-3.39317 -3.95359,-3.39317 -2.91694,0 -4.30817,1.33631 -4.83749,4.64653 -0.54258,3.39309 1.46044,5.88424 6.94583,8.6385 4.54925,2.28422 8.97363,5.19514 10.55255,6.94281 1.79083,1.98224 2.21137,4.13332 2.21137,11.31134 0,16.20098 -2.70797,19.74083 -15.38462,20.11077 -3.49809,0.10209 -5.64454,-0.016 -6.94359,-0.38211 z"
     id="path458"
     transform="scale(0.75)" />
  <path
     style="fill:#000000;stroke-width:0.75"
     d="m 210.61344,218.50048 c -0.35153,0.16213 -1.01012,-1.67351 -1.16845,-1.75267 -0.17418,-0.0871 -0.41004,0.0871 -0.58423,0 -0.0871,-0.0436 0.0436,-0.20502 0,-0.29212 -0.0974,-0.19474 -0.48686,-0.0974 -0.58423,-0.29211 -0.0871,-0.17418 0.0871,-0.41004 0,-0.58423 -0.18836,-0.37671 -0.58422,0.46691 -0.58422,-0.29211"
     id="path982" />
  <path
     style="fill:#000000;stroke-width:0.75"
     d="m 201.59773,205.31571 c 0.53913,0.0753 0.56262,0.47836 0.92949,0.72294 0.24806,0.16538 1.0775,0.8124 1.13606,0.92951 0.0344,0.0688 0.17212,0.0344 0.20655,0.10327 0.0308,0.0616 -0.0308,0.14497 0,0.20656 0.0398,0.0797 0.32451,-0.0739 0.41311,0.10328 0.0508,0.10165 0.0692,0.96355 0,1.03277 -0.13149,0.13149 -0.86318,0.18808 -1.03278,0.10328 -0.0308,-0.0154 0.0308,-0.0879 0,-0.10328 -0.18138,-0.0907 -0.3129,-0.0709 -0.51638,-0.20655 -0.2046,0.0103 -0.0488,-0.15213 -0.10328,-0.20656 -0.0545,-0.0545 -0.15212,-0.0488 -0.20655,-0.10327 -0.18997,-0.18997 -0.2257,-0.63881 -0.41312,-0.82623 -0.0243,-0.0244 -0.0789,0.0244 -0.10327,0 -0.0765,-0.0766 0.0249,-0.28492 -0.10328,-0.4131 -0.0244,-0.0244 -0.0688,0 -0.10328,0 -0.0344,-0.0344 -0.0763,-0.0628 -0.10327,-0.10329 -0.13234,-0.1985 -0.10943,-0.4254 -0.20656,-0.61966 -0.0862,-0.17247 0.18648,-0.57951 0.20656,-0.61967 z"
     id="path994" />
  <path
     style="fill:#000000;stroke-width:0.75"
     d="m 207.07144,215.43691 c 0.1377,0.0344 0.295,0.0245 0.41311,0.10328 0.13305,0.0887 0.34813,0.63198 0.4131,0.72295 0.25369,0.35516 0.5933,0.78062 0.92951,1.03277 0.2623,0.19672 0.4426,0.56063 0.61966,0.82622 0.11649,0.17474 0.4446,0.19774 0.51639,0.41311 0.12762,0.38286 -0.13893,0.0677 0.10328,0.30983 0.0545,0.0545 0.17212,0.0344 0.20655,0.10328 0.0697,0.13954 0.0429,0.61386 0.20656,0.72294 0.0573,0.0382 0.14497,-0.0308 0.20655,0 0.0619,0.031 -0.0554,0.35771 0,0.41311 0.1646,0.1646 0.46654,0.3965 0.82622,0.51639 0.30144,0.10048 0.78294,0.0133 0.9295,-0.20656 0.13156,-0.19734 0.0293,-1.1379 0,-1.3426 -0.0218,-0.15275 -0.45127,-1.38077 -0.51639,-1.44589 -0.0244,-0.0244 -0.0789,0.0244 -0.10328,0 -0.0434,-0.0434 0.0189,-0.37528 0,-0.41311 -0.0154,-0.0308 -0.0789,0.0244 -0.10327,0 -0.0599,-0.0599 -0.1467,-0.35325 -0.20656,-0.41311 -0.0243,-0.0243 -0.0789,0.0244 -0.10328,0 -0.077,-0.077 -0.0263,-0.23285 -0.10327,-0.30983 -0.0244,-0.0244 -0.0725,0.0154 -0.10328,0 -0.12744,-0.0638 -0.34308,-0.44636 -0.41311,-0.51639 -0.0516,-0.0516 -0.2582,0.0516 -0.30983,0 -0.0244,-0.0244 0.0308,-0.0879 0,-0.10328 -0.0616,-0.0308 -0.14498,0.0308 -0.20656,0 -0.0308,-0.0154 0.0244,-0.0789 0,-0.10327 -0.10002,-0.10002 -1.19184,-0.0397 -1.44588,-0.10328 -0.0472,-0.0119 -0.0571,-0.0879 -0.10329,-0.10328 -0.0992,-0.0331 -0.31398,0.0496 -0.4131,0 -0.50737,-0.25368 -0.61935,-0.22727 -1.23933,-0.10328 z"
     id="path996" />
  <path
     style="fill:#000000;stroke-width:0.75"
     d="m 165.60551,179.54797 c 0.47343,-0.0254 0.93747,0.15891 1.34261,0.36147 0.0616,0.0308 0.13976,-0.0167 0.20655,0 0.0236,0.006 0.0344,0.0344 0.0517,0.0517 0.0516,0.0173 0.10211,0.0384 0.15491,0.0517 0.0334,0.008 0.0789,-0.0244 0.10329,0 0.0121,0.0121 -0.0121,0.0395 0,0.0517 0.20153,0.20153 0.0277,-0.0119 0.15491,0.0516 0.11541,0.0577 0.19441,0.14885 0.30983,0.20656 0.14459,0.0723 0.32016,0.0826 0.46475,0.15491 0.23633,0.11816 -0.21913,-0.0214 0.15491,0.10328 0.23587,0.0786 0.40704,0.15188 0.61967,0.25819 0.053,0.0265 0.1536,0.0251 0.20656,0.0516 0.0217,0.0109 0.0344,0.0344 0.0516,0.0517 0.0516,0.0344 0.0973,0.0802 0.15492,0.10327 0.28029,0.11212 0.61318,0.0667 0.87785,0.15491 0.10107,0.0337 0.62604,0.006 0.67131,0.0517 0.0121,0.0121 -0.0164,0.0462 0,0.0516 0.0619,0.0206 0.14459,-0.0206 0.20655,0 0.12592,0.042 0.2503,0.11785 0.36148,0.15491 0.0496,0.0165 0.15699,-0.0248 0.20655,0 0.095,0.0475 0.0724,0.0999 0.15492,0.15492 0.0286,0.0191 0.0706,-0.0109 0.10327,0 0.0462,0.0154 0.0597,0.0815 0.10328,0.10327 0.0313,0.0157 0.13328,0.03 0.15492,0.0516 0.0121,0.0121 -0.0121,0.0394 0,0.0517 0.0244,0.0243 0.0725,-0.0154 0.10327,0 0.0545,0.0272 0.10436,0.078 0.15492,0.10328 0.0872,0.0436 0.0337,0.13695 0.10328,0.20655 0.10698,0.10698 0.20993,0.15829 0.30983,0.25819 0.0649,0.0649 0.0609,0.11257 0.10327,0.15492 0.0432,0.0432 0.26102,0.003 0.30984,0.0516 0.0122,0.0121 -0.0121,0.0394 0,0.0516 0.0217,0.0217 0.12362,0.036 0.15492,0.0516 0.0436,0.0217 0.0597,0.0815 0.10327,0.10328 0.0308,0.0154 0.0789,-0.0244 0.10328,0 0.0243,0.0244 -0.0244,0.0789 0,0.10328 0.0258,0.0258 0.1291,-0.0258 0.15492,0 0.0239,0.0239 -0.0156,0.12373 0,0.15492 0.0414,0.0828 0.10416,0.7225 0,0.77458 -0.0307,0.0154 -0.0725,-0.0154 -0.10328,0 -0.0154,0.008 0.01,0.0374 0,0.0516 -0.027,0.0405 -0.0688,0.0688 -0.10328,0.10328 -0.0406,0.0407 -0.13118,0.0795 -0.15491,0.10327 -0.0272,0.0272 -0.0143,0.0939 -0.0516,0.10328 -0.0965,0.0242 -1.27934,0.0575 -1.39425,0 -0.0154,-0.008 0.0164,-0.0462 0,-0.0516 -0.11757,-0.0392 -0.38007,-0.0692 -0.51639,-0.10328 -0.21604,0.0935 -0.0597,-0.0815 -0.10328,-0.10328 -0.1338,-0.0669 -0.3367,-0.0392 -0.46474,-0.10327 -0.0154,-0.008 0.0121,-0.0395 0,-0.0516 -0.0365,-0.0365 -0.10482,0.0125 -0.15492,0 -0.24936,-0.0623 0.002,-0.0245 -0.15492,-0.10328 -0.12249,-0.0613 -0.27991,-0.05 -0.41311,-0.10328 -0.16967,-0.0679 -0.59516,-0.33591 -0.72294,-0.36147 -0.0675,-0.0135 -0.13864,0.0113 -0.20656,0 -0.1602,-0.0267 -0.29771,-0.17315 -0.46474,-0.20656 -0.0656,-0.0131 -0.30717,-0.0155 -0.36147,-0.0516 -0.032,-0.0214 -0.0197,-0.0819 -0.0517,-0.10327 -0.0743,-0.0496 -0.31158,-0.0525 -0.41311,-0.10328 -0.0692,-0.0346 -0.12288,-0.12288 -0.15491,-0.15492 -0.003,-0.003 -0.32935,-0.19049 -0.36148,-0.20656 -0.0487,-0.0244 -0.11136,-0.019 -0.15491,-0.0517 -0.0308,-0.0231 -0.0209,-0.0802 -0.0516,-0.10328 -0.0496,-0.0372 -0.29589,-0.0893 -0.30983,-0.10327 -0.0244,-0.0244 0.0244,-0.0789 0,-0.10328 -0.0656,-0.0656 -0.19265,-0.0377 -0.2582,-0.10328 -0.0281,-0.028 -0.40647,-0.4382 -0.4131,-0.46475 -0.0125,-0.0501 0.0164,-0.10592 0,-0.15491 -0.004,-0.011 -0.19077,-0.0359 -0.20656,-0.0516 -0.0112,-0.0112 -0.0416,-0.0983 -0.0516,-0.10329 -0.0934,-0.0467 -0.39277,0.072 -0.46475,0 -0.0244,-0.0244 0.008,-0.0699 0,-0.10327 0.10044,-0.14347 -0.0846,-0.13187 -0.10328,-0.20656 -0.0208,-0.0835 0.0272,-0.17654 0,-0.25819 -0.0986,-0.29575 -0.0516,-0.70317 -0.0516,-1.03278 z"
     id="path1000" />
  <path
     style="fill:#000000;stroke-width:0.75"
     d="m 172.98985,184.19546 c 0.0887,0.11348 0.31122,0.10466 0.41311,0.20656 0.0272,0.0272 0.0245,0.0761 0.0516,0.10327 0.0275,0.0275 0.34621,0.0899 0.41312,0.10329 0.0536,0.0107 0.13755,0.0861 0.20655,0.0516 0.17532,-0.0877 0.0246,-0.72533 -0.0516,-0.87786 -0.0231,-0.0462 -0.213,-0.19526 -0.2582,-0.20656 -0.0838,-0.0209 -0.48481,-0.0416 -0.56803,0 -0.008,0.004 -0.25818,0.34303 -0.25818,0.36147 0,0.0878 0.0344,0.17213 0.0516,0.25819 z"
     id="path1002" />
  <path
     style="fill:#000000;stroke-width:0.75"
     d="m 187.55198,293.10161 c -0.51312,-0.32961 -1.52013,0.27272 -2.06555,0 -0.0871,-0.0436 -0.11209,-0.18294 -0.20655,-0.20656 -0.26719,-0.0668 -0.57989,0.12318 -0.82622,0 -0.3381,-0.16905 -0.69468,-0.45061 -1.03278,-0.61966 -0.17081,-0.0854 -1.16509,-0.14847 -1.03278,-0.41311 0.37024,-0.74047 3.57253,-0.36462 4.33766,-0.61966 0.34559,-0.1152 0.40468,-0.62389 0.82622,-0.41311 0.0126,0.006 0,1.62244 0,2.2721 z"
     id="path1004" />
  <path
     style="fill:#000000;stroke-width:0.75"
     d="m 133.64111,88.40556 c 1.19185,0.657915 1.74765,1.382145 2.47867,2.47866 0.0854,0.1281 0.34426,0.06885 0.41311,0.206558 0.1946,0.389212 -0.13217,0.826222 0.41311,0.826222 0.0688,0 0.20655,0.06885 0.20655,0 0,-0.06885 -0.15786,0.04868 -0.20655,0 -0.0322,-0.03217 0.10641,-0.932633 -0.20655,-0.619665 -0.18538,0.18537 -0.22774,1.053952 -0.41312,1.23933 -0.21113,0.211132 -0.7176,0.20655 -1.03277,0.20655 -0.13883,0 -0.49777,0.06097 -0.61967,0 -0.39846,-0.19923 -0.0716,-0.349598 -0.20655,-0.619665 -0.15403,-0.308055 -0.46212,-0.511133 -0.61967,-0.826215 -0.0753,-0.15066 -0.20656,-1.388798 -0.20656,-1.652445"
     id="path1006" />
  <path
     style="fill:#000000;stroke-width:0.75"
     d="m 136.94599,92.12355 c -0.13658,-0.277943 0.1769,-2.71488 0,-2.891767 -0.18359,-0.183593 -0.68309,-0.444833 -1.03277,-0.619666 -0.1083,-0.05415 -1.21321,-0.284902 -1.23933,-0.206557 -0.043,0.128873 -0.13849,1.7205 0,1.858995 0.14606,0.146055 0.43492,-0.09237 0.61967,0 0.19473,0.09737 0.0858,0.438503 0.20655,0.619665 0.35211,0.528173 0.95823,0.832958 1.44588,1.23933 z"
     id="path1008" />
  <path
     style="fill:#ffffff;stroke-width:0.550813"
     d="m 97.061313,387.98262 c -0.141206,-0.1412 -16.956511,-0.34069 -37.367349,-0.44331 -34.269989,-0.17229 -42.139234,-0.48055 -43.357104,-1.69842 -1.694741,-1.69474 -3.191077,-118.64887 -1.652523,-129.16182 0.332519,-2.2721 0.572838,-4.99863 0.534041,-6.05895 -0.09314,-2.54549 1.495502,-5.0314 4.728293,-7.39883 3.228454,-2.36426 13.458875,-7.64592 25.220033,-13.02034 4.847158,-2.21498 9.804479,-4.63936 11.016269,-5.38753 3.590213,-2.2166 8.169441,-6.45637 9.857217,-9.12651 0.866578,-1.37096 2.039836,-2.64 2.60724,-2.82009 0.567404,-0.18009 1.296874,-0.82302 1.621044,-1.42874 0.958608,-1.79118 -0.521053,-5.00532 -6.178338,-13.42064 -5.220004,-7.76486 -6.981895,-11.02351 -6.318752,-11.68666 0.863357,-0.86336 9.744156,9.21088 16.857296,19.12264 2.500203,3.4839 6.189045,8.09114 8.197427,10.23831 2.008387,2.14718 4.218845,4.59564 4.912143,5.44103 0.693292,0.84539 1.408287,1.38932 1.588877,1.20873 0.629662,-0.62966 -1.023015,-3.55612 -6.124016,-10.84403 -2.824908,-4.036 -5.94537,-8.91583 -6.934356,-10.84405 -2.284444,-4.45399 -9.944229,-13.58613 -13.259003,-15.80764 -1.555628,-1.04256 -2.94061,-2.55259 -3.580287,-3.90355 -0.573781,-1.21179 -1.503818,-2.28856 -2.06675,-2.39282 -0.898801,-0.16647 -0.998989,0.11877 -0.822251,2.34096 0.110693,1.39179 0.02619,2.53052 -0.187787,2.53052 -0.705496,0 -3.130647,-3.57288 -4.592446,-6.76586 -0.790421,-1.72651 -1.708419,-4.81438 -2.039997,-6.86193 -0.387562,-2.39327 -1.054877,-4.26991 -1.868515,-5.25467 -1.364767,-1.65181 -2.401606,-4.72222 -2.406537,-7.12651 -0.0017,-0.82378 -0.502872,-2.45666 -1.113739,-3.62864 -0.641894,-1.2315 -1.351002,-4.20277 -1.680092,-7.03983 -0.313184,-2.69994 -1.058946,-6.08481 -1.65725,-7.52194 -0.598303,-1.43713 -1.323063,-5.03119 -1.610577,-7.98679 -0.653243,-6.71525 -0.688312,-28.90612 -0.05002,-31.653915 0.322839,-1.389807 0.214102,-3.241417 -0.339643,-5.783542 -0.615284,-2.824643 -0.735483,-5.760159 -0.491416,-12.001454 0.373781,-9.558359 1.162281,-13.471005 2.887528,-14.328316 2.143738,-1.065268 2.950516,-2.036718 2.950516,-3.552749 0,-1.082874 1.06149,-2.661643 3.835927,-5.705226 4.055772,-4.449217 5.527901,-6.746966 5.527901,-8.628129 0,-0.719744 2.006019,-3.144909 5.376105,-6.499412 4.046908,-4.028194 5.581577,-5.964073 6.207164,-7.829905 0.740045,-2.207206 0.995798,-2.461297 2.335284,-2.32011 1.173802,0.123724 1.504224,-0.07507 1.504224,-0.904993 0,-1.214676 1.016279,-1.732219 3.401499,-1.732219 1.19873,0 1.739315,-0.307285 1.948613,-1.107652 0.165707,-0.633657 0.909691,-1.236227 1.738577,-1.408113 0.796906,-0.165254 2.564317,-0.594265 3.927581,-0.953359 1.363263,-0.359094 3.408158,-0.57166 4.544211,-0.47237 1.594494,0.139357 2.06555,-0.0187 2.06555,-0.693056 0,-1.096806 0.255082,-1.09275 1.970662,0.03134 1.301853,0.853008 1.439623,0.8421 2.401282,-0.190117 0.821786,-0.882087 2.0134,-1.15939 6.127426,-1.425926 2.867135,-0.185753 5.534235,-0.102365 6.080745,0.190117 0.53542,0.28655 1.52409,0.521001 2.19705,0.521001 0.67295,0 2.03597,0.619665 3.02893,1.377033 0.99297,0.757369 2.50356,1.377091 3.35688,1.37716 0.85332,6.9e-5 2.91475,0.733832 4.58096,1.630585 1.66621,0.896752 3.20534,1.640294 3.42029,1.652314 0.21495,0.01202 0.99197,-0.626454 1.7267,-1.418833 1.25918,-1.357965 1.45555,-1.401193 3.42002,-0.752859 3.23449,1.067476 5.71855,2.730258 6.58665,4.408962 0.64244,1.24236 1.14669,1.521982 2.6669,1.47889 1.92714,-0.05463 5.57204,1.819483 4.33842,2.230691 -1.14869,0.382901 -0.75969,1.744535 1.25059,4.377306 1.96082,2.568024 2.43065,4.018849 1.3014,4.018849 -0.34454,0 -2.14157,-1.496127 -3.99341,-3.324726 -3.42654,-3.383578 -10.98679,-8.79317 -12.289,-8.79317 -0.4315,0 -0.71717,0.665942 -0.71717,1.67182 0,1.482194 -0.12085,1.607146 -1.06542,1.101627 -1.77127,-0.947956 -4.00236,-0.724302 -3.78971,0.379895 0.15776,0.819149 1.03306,1.470864 3.47809,2.589632 0.30295,0.138619 0.11705,0.526604 -0.41311,0.862188 -1.53678,0.972763 -1.12377,1.65704 1.00014,1.65704 2.71536,0 4.23544,-0.892684 3.80883,-2.2368 -0.42719,-1.345922 -0.23096,-1.335975 2.22445,0.112758 1.10077,0.649462 1.77847,1.331094 1.50605,1.514737 -0.94032,0.633861 -1.19283,2.236108 -0.61406,3.896372 0.41054,1.177662 1.26582,1.968749 2.91928,2.700153 1.28625,0.568968 2.91443,1.843122 3.61819,2.831455 1.2724,1.786927 1.27405,1.811168 0.29533,4.338238 -0.70264,1.814225 -1.06404,4.708065 -1.26322,10.114955 l -0.27897,7.573685 h 9.90852 9.90853 l 0.34734,2.891771 c 0.19104,1.590474 0.3495,3.64996 0.35213,4.576638 0.008,2.956965 1.05417,3.713518 5.75363,4.162409 4.69081,0.448064 6.47078,1.325802 7.76536,3.829244 1.50689,2.914012 3.01276,9.907691 2.94631,13.683456 -0.0351,1.99644 -0.16388,3.13415 -0.28606,2.52826 -0.12219,-0.6059 -0.49588,-2.51168 -0.83043,-4.235071 -1.05391,-5.429103 -4.24537,-9.179344 -3.48251,-4.092257 0.55238,3.683543 -1.38827,4.128892 -3.2244,0.739946 -1.18617,-2.189329 -5.63096,-7.009178 -6.46375,-7.009178 -0.35114,0 -0.15217,0.760971 0.46807,1.790143 8.61213,14.290107 12.91047,24.689667 11.50518,27.836047 -0.43449,0.97279 -0.29064,1.9151 0.63226,4.14175 0.65709,1.58535 1.19471,3.54315 1.19471,4.35068 0,2.13736 0.79838,3.91031 2.77422,6.16067 2.80134,3.19054 4.36516,2.1628 2.50203,-1.64432 -0.43048,-0.87965 -1.16832,-4.23263 -1.63963,-7.45106 -0.47131,-3.21843 -1.1175,-6.53703 -1.43597,-7.37467 -1.39829,-3.6778 0.72245,-1.49006 3.3438,3.44942 1.39261,2.62414 2.1147,3.44259 3.03727,3.44259 1.45196,0 1.60494,0.66351 2.43482,10.56053 0.41535,4.95351 0.41366,8.07216 -0.006,10.74086 -0.69591,4.42712 -3.88577,11.59854 -6.10461,13.72434 l -1.56377,1.49818 -0.51628,-1.35791 c -0.28395,-0.74685 -0.78153,-5.18478 -1.10573,-9.86205 -0.64556,-9.31385 -1.05576,-12.08443 -1.78917,-12.08443 -0.26507,0 -0.48992,1.17737 -0.49965,2.61637 -0.18337,27.10636 -0.18983,27.21909 -1.74856,30.51011 -0.8094,1.70893 -2.86675,7.16198 -4.57188,12.1179 -1.70514,4.95591 -4.28516,11.42744 -5.73338,14.38118 -1.44823,2.95374 -2.47557,5.37043 -2.28298,5.37043 0.19259,0 1.57086,-1.23933 3.06282,-2.75407 1.49196,-1.51473 2.90787,-2.75406 3.14647,-2.75406 0.2386,0 0.43381,4.041 0.43381,8.98 v 8.98 l 3.9934,1.27787 c 2.19637,0.70282 5.29402,1.76063 6.88367,2.35069 2.72421,1.01117 2.8508,1.14178 2.20326,2.27313 -0.52292,0.9136 -0.72478,9.12752 -0.84507,34.38683 l -0.15805,33.18651 h 8.83336 8.83336 v -10.65125 c 0,-5.85819 0.1638,-17.754 0.36398,-26.43514 0.31665,-13.73094 0.464,-15.64112 1.13287,-14.68617 0.64243,0.9172 1.39782,1.09772 4.59333,1.09772 h 3.82446 v 25.33742 25.33742 h 9.08843 9.08842 v -22.84018 -22.84018 l 1.79014,1.04037 c 0.98458,0.5722 3.21538,1.44897 4.95732,1.94836 l 3.16718,0.90798 v 20.89182 20.89183 h 7.71139 7.71139 l 0.0546,-8.67531 c 0.0301,-4.77142 0.21597,-10.75923 0.41311,-13.30624 l 0.35844,-4.63094 4.38675,10.13907 c 6.94907,16.06135 6.98499,16.10411 13.9278,16.58211 l 3.44258,0.23701 v -5.35401 c 0,-5.08283 0.0558,-5.33942 1.10163,-5.06593 0.99733,0.26081 1.10163,0.75132 1.10163,5.18116 v 4.89308 h 2.43856 c 2.14542,0 2.64201,0.24683 4.1311,2.05334 0.93089,1.12935 1.69254,2.48041 1.69254,3.00237 0,2.46482 1.33568,6.70501 2.57671,8.17989 l 1.37691,1.63636 h -1.426 c -1.04665,0 -1.42597,0.28576 -1.42597,1.07426 0,0.59084 0.39312,1.29426 0.8736,1.56315 1.48908,0.83333 3.96366,9.00152 6.59206,21.75934 3.74303,18.16806 8.94423,36.39157 11.78036,41.27504 0.90874,1.56472 3.19581,10.30866 4.10652,15.70005 0.43364,2.56714 -0.82448,3.04206 -7.45666,2.81476 -4.11842,-0.14115 -5.59811,-0.39183 -5.9817,-1.01337 -0.43963,-0.71233 -0.84238,-0.64408 -2.9304,0.49655 -2.3858,1.3033 -2.57079,1.31747 -12.82675,0.98298 -11.10269,-0.36212 -14.33356,-0.86774 -16.80926,-2.63059 -2.78463,-1.98283 -2.93992,-4.07952 -1.29571,-17.49438 0.8039,-6.55881 2.05946,-14.82176 2.79014,-18.36211 1.37183,-6.64689 1.91651,-19.72663 0.82147,-19.72663 -0.64033,0 -0.9572,1.4637 -2.21974,10.25362 -0.95986,6.68262 -7.97592,45.08629 -8.61712,47.16741 -0.47723,1.54889 -2.74144,1.73568 -9.25516,0.76349 -7.29094,-1.08819 -7.75363,-1.09944 -8.6924,-0.2114 -0.57293,0.54196 -14.99186,0.70887 -67.73967,0.78415 -36.85648,0.0526 -67.127325,-0.0199 -67.268532,-0.1611 z M 217.25297,346.65007 c 1.21694,-0.85238 1.49312,-0.84887 4.14504,0.0525 2.89432,0.98381 5.53714,1.01073 5.53714,0.0564 0,-0.46456 -1.21671,-1.39748 -4.33878,-3.32682 -0.60151,-0.37171 -1.08675,-1.98364 -1.49232,-4.95732 -0.33053,-2.42358 -0.72926,-5.02618 -0.88605,-5.78354 l -0.28507,-1.37704 -1.1523,1.51695 -1.1523,1.51695 -1.78235,-1.72752 c -1.10476,-1.07077 -2.11024,-1.60168 -2.64487,-1.39653 -0.95825,0.36772 -1.17143,2.31288 -0.31171,2.84422 1.00735,0.62258 0.57228,1.74837 -1.65244,4.27578 -1.21179,1.37666 -2.20325,2.6202 -2.20325,2.76341 0,0.14321 1.36298,0.3734 3.02883,0.51155 1.66587,0.13815 3.19851,0.42084 3.40587,0.6282 0.55314,0.55315 -0.72564,1.65093 -2.70774,2.32446 -2.17492,0.73907 -2.46719,1.53346 -0.85072,2.31233 1.84572,0.88934 3.8655,0.80087 5.34302,-0.23402 z m -6.22661,-13.59031 c -1.26996,-3.32532 -2.55591,-4.46383 -3.91744,-3.46825 -0.98232,0.71829 -0.96454,0.84439 0.46227,3.27906 2.62286,4.47557 5.14489,4.61366 3.45517,0.18919 z m 11.77769,-4.11234 c 0,-0.24146 -1.01247,-1.41883 -2.24993,-2.61636 -1.23746,-1.19753 -2.72969,-3.10684 -3.31608,-4.24289 -1.18056,-2.28721 -2.85207,-2.70719 -5.05653,-1.27047 -0.67098,0.43729 -2.80505,1.04897 -4.74238,1.35928 -4.79655,0.7683 -8.87088,2.18456 -8.87088,3.08359 0,0.89032 3.39022,1.59776 11.84249,2.47114 3.33242,0.34434 6.92648,0.83215 7.9868,1.08403 2.58248,0.61345 4.40651,0.66796 4.40651,0.13168 z m -17.92659,-7.50176 c 3.28407,-1.37217 4.48956,-4.74907 1.97971,-5.54566 -1.49862,-0.47565 -2.64471,0.2006 -3.04535,1.79689 -0.2002,0.79764 -0.85405,1.7935 -1.45301,2.21302 -0.85879,0.60152 -0.95276,0.92695 -0.44449,1.53937 0.78796,0.94943 0.68186,0.94956 2.96314,-0.004 z M 160.01131,276.3126 v -11.76284 l 3.71799,-0.35114 c 2.0449,-0.19313 5.26716,-0.3529 7.16058,-0.35506 l 3.44258,-0.004 v -8.20327 c 0,-9.37136 0.29084,-8.86909 -5.14008,-8.87674 -1.86864,-0.003 -4.69882,-0.16109 -6.2893,-0.35213 l -2.89177,-0.34734 v -4.32978 -4.32979 h 7.43598 7.43598 v -8.87015 -8.87015 l -15.44298,0.19484 c -11.98268,0.15118 -15.54302,0.35675 -15.88946,0.91744 -0.76765,1.2424 -1.16145,15.39884 -1.16353,41.82774 l -0.002,25.47512 h 8.81302 8.81301 z m -30.57015,-17.49466 c 2.21198,-0.61147 3.19099,-1.43191 2.68522,-2.25027 -0.40421,-0.65402 -7.68427,-0.48344 -11.72847,0.27482 -3.62492,0.67964 -4.9556,1.7655 -2.69328,2.19776 2.6086,0.49843 9.60895,0.36583 11.73653,-0.22231 z M 117.82258,232.195 c 4.96178,-0.94935 7.92611,-2.19127 12.26779,-5.13964 4.17714,-2.83665 6.78678,-5.29762 6.78678,-6.40015 0,-1.45146 -1.37794,-1.00946 -4.20884,1.35005 -5.28044,4.40116 -13.97352,7.87348 -21.55924,8.61151 -2.94599,0.28662 -3.56844,0.18851 -4.18915,-0.66036 -0.46091,-0.63034 -1.07753,-0.86326 -1.67666,-0.63336 -0.57248,0.21968 -1.9151,-0.20332 -3.39133,-1.06845 -2.705331,-1.58543 -4.256559,-1.42461 -3.983471,0.41296 0.21881,1.47232 2.465091,3.19358 4.925891,3.77457 3.07737,0.72657 10.58437,0.60312 15.02823,-0.24713 z m -0.26348,-31.46562 c -1.62351,-1.72815 -3.59199,-2.31507 -9.96765,-2.97194 -6.59753,-0.67973 -8.988151,-1.48106 -16.860702,-5.65166 -3.430389,-1.81729 -6.368169,-3.17308 -6.528395,-3.01285 -0.578393,0.57839 1.708799,3.29145 5.73518,6.80305 4.899045,4.27268 6.347128,5.05295 7.54014,4.06285 0.697286,-0.57871 0.84253,-0.54519 0.84253,0.19442 0,1.08713 1.085901,1.15397 2.457197,0.15125 0.87265,-0.6381 1.15831,-0.5994 2.03312,0.27541 0.83996,0.83996 1.95627,1.0292 6.38825,1.08298 2.95374,0.0359 6.11403,0.2395 7.02287,0.45256 2.33903,0.54834 2.75234,0.12001 1.33746,-1.38607 z m -0.71043,-11.52496 c 0.18849,-0.4912 1.01903,-0.82705 2.04827,-0.82828 2.14873,-0.003 4.55596,-1.44101 9.16719,-5.47792 4.91073,-4.29911 6.02522,-4.98547 8.09521,-4.98547 1.43306,0 1.96198,0.33035 2.64565,1.65244 0.90743,1.75476 1.83947,2.0713 2.91931,0.99146 1.31998,-1.31997 0.6763,-3.02963 -2.12832,-5.65303 -2.15152,-2.0125 -3.06462,-2.53119 -3.9934,-2.26846 -3.74222,1.05855 -8.10185,1.60034 -26.94828,3.34894 -24.352757,2.2595 -25.375166,2.28959 -28.103989,0.82702 -2.160357,-1.15788 -4.262647,-1.45176 -4.262647,-0.59586 0,2.2079 3.370588,4.71773 9.705526,7.22699 2.387121,0.94554 5.703481,2.49681 7.369692,3.44727 4.428694,2.52627 7.120018,3.06253 15.577768,3.10395 6.26318,0.0307 7.64643,-0.10735 7.90802,-0.78905 z m 31.59556,-17.57589 c 0,-1.75734 -2.39139,-4.8512 -7.48946,-9.68947 -9.84696,-9.34515 -21.72171,-17.80982 -23.46942,-16.72967 -1.08512,0.67064 -0.34631,2.33263 1.2906,2.90326 2.32917,0.81196 6.33678,4.23796 16.17335,13.82619 12.36405,12.0519 13.49493,12.86389 13.49493,9.68969 z m -76.01226,0.60729 c 1.341495,-0.45747 1.927847,-0.99249 1.927847,-1.75905 0,-0.96124 -0.33674,-1.08998 -2.642395,-1.01022 -2.83599,0.0981 -5.3444,1.35379 -5.3444,2.67535 0,1.00631 3.23636,1.05647 6.058948,0.0939 z m 27.407068,-2.58527 c 5.009312,-1.38815 6.028982,-1.3831 6.478152,0.0321 0.62258,1.96157 2.63128,1.14146 3.45142,-1.40915 0.86618,-2.69377 1.54619,-3.23232 5.91871,-4.6874 3.76404,-1.25259 5.5479,-2.74223 4.99847,-4.17403 -0.75188,-1.95936 -7.37381,0.29979 -10.48845,3.57826 -1.90691,2.00721 -2.17671,2.04761 -4.01545,0.60126 -1.88379,-1.48179 -3.68316,-1.48209 -3.29572,-5.5e-4 0.44075,1.68545 -0.63228,1.9151 -2.20247,0.47137 -1.986956,-1.82694 -3.981269,-6.58729 -4.387346,-10.47244 -0.393771,-3.7674 -2.055779,-6.70607 -3.946606,-6.97818 -1.677083,-0.24134 -4.965748,2.33249 -5.930481,4.64141 -1.085312,2.59752 -0.953211,6.24497 0.371639,10.26127 1.914099,5.80262 4.850116,9.20688 7.960081,9.22957 0.611981,0.004 2.901608,-0.48761 5.088051,-1.0935 z m -1.452655,-27.99017 1.735997,-1.55111 -2.302999,-5.11466 c -1.26665,-2.81306 -2.539366,-6.36099 -2.828256,-7.88429 -0.969399,-5.11161 -3.43078,-7.64229 -11.267479,-11.5847 -2.120632,-1.06683 -5.181899,-2.83385 -6.802816,-3.92671 -1.620917,-1.09287 -3.35598,-1.99491 -3.855694,-2.00455 -0.499715,-0.01 -1.389714,-0.38144 -1.977773,-0.82622 -1.682922,-1.2729 -5.038701,-1.04282 -6.060141,0.41549 l -0.857454,1.22418 v -1.22418 c 0,-0.92178 -0.323506,-1.22419 -1.309589,-1.22419 -0.720275,0 -1.606833,0.35815 -1.97013,0.7959 -1.858962,2.23991 1.339459,5.51183 5.936437,6.07284 6.424224,0.78401 12.438766,2.67999 14.969313,4.71881 l 1.377034,1.10946 -1.586552,-0.36729 c -2.800947,-0.64844 -1.392022,0.97494 3.434057,3.95674 2.484962,1.53534 4.851807,3.2704 5.259646,3.85569 0.407845,0.58529 1.431845,3.54283 2.275565,6.5723 1.659926,5.96019 2.736722,8.53761 3.566853,8.53761 0.290389,0 1.309179,-0.698 2.263981,-1.55112 z m -19.898357,-0.0427 c 1.640653,-0.45651 2.098275,-1.97406 0.751167,-2.491 -0.527035,-0.20224 -3.327696,-0.59606 -6.223691,-0.87515 -7.87472,-0.75889 -15.266872,-3.58999 -17.552279,-6.72229 -1.06484,-1.45943 -2.860537,-1.28208 -2.860537,0.28252 0,5.04496 18.207408,11.94233 25.88534,9.80593 z m 57.976014,-8.20113 c 4.89467,-2.16897 3.22785,-2.85546 -6.95937,-2.86625 -3.90339,-0.004 -8.68049,-0.29927 -10.61579,-0.65587 -3.71526,-0.68456 -4.92695,-0.30656 -4.29513,1.33992 0.41189,1.07337 3.33128,2.50571 6.45699,3.16799 4.0609,0.86044 12.45907,0.32331 15.4133,-0.98579 z m -72.324836,-3.7379 2.175863,-1.96577 1.66548,1.23135 c 3.021831,2.23413 8.328919,1.40924 9.421479,-1.46441 0.280948,-0.73895 0.851762,-1.34355 1.268474,-1.34355 1.591515,0 4.273541,1.26116 4.808745,2.26119 0.545233,1.01877 3.273875,1.50959 3.273875,0.58889 0,-1.47919 -8.367561,-6.15496 -11.014666,-6.15496 -0.942701,0 -1.064728,0.23703 -0.755766,1.46803 l 0.36845,1.46803 -2.033713,-1.55119 c -2.468752,-1.88301 -4.063885,-1.89645 -8.04603,-0.0678 -1.666211,0.76515 -5.503368,1.78917 -8.527017,2.27561 -3.023649,0.48644 -5.576559,0.96345 -5.673134,1.06003 -0.280979,0.28098 8.86843,4.07848 9.92976,4.12139 0.529285,0.0214 1.941475,-0.84568 3.1382,-1.92685 z m 52.734806,-4.14767 c -0.25173,-0.96264 -0.10661,-1.10493 0.86715,-0.85029 0.64322,0.1682 1.98329,-0.0803 2.97794,-0.55235 1.69058,-0.80222 1.96436,-0.7827 4.19984,0.29947 2.88378,1.39602 5.73814,1.48461 7.52429,0.23354 1.36939,-0.95915 7.08259,-1.1841 10.7082,-0.42161 2.75727,0.57987 1.11044,-0.57587 -3.82356,-2.68337 -5.78647,-2.47161 -7.60165,-2.85919 -8.62025,-1.84059 -0.69636,0.69636 -0.88565,0.65681 -1.49028,-0.31136 -0.89151,-1.42753 -3.25477,-1.09777 -7.95723,1.11033 -5.83563,2.7402 -8.90784,6.17234 -5.52504,6.17234 1.19274,0 1.38914,-0.19937 1.13894,-1.15611 z m 32.02371,-3.66351 c -0.24118,-1.30543 -9.27541,-5.93574 -13.06692,-6.69718 -3.52058,-0.70704 -13.76777,-0.76459 -11.62236,-0.0653 0.75736,0.24686 3.60782,0.85982 6.33435,1.36211 2.72653,0.5023 6.94025,1.7937 9.36383,2.86979 4.99604,2.21828 8.05158,3.43489 8.7157,3.4703 0.24942,0.0133 0.37335,-0.40959 0.2754,-0.93975 z m -32.09286,-1.54636 c 1.79986,-1.0777 3.76132,-2.44096 4.3588,-3.02947 1.02196,-1.00661 1.02674,-1.07001 0.0806,-1.07001 -1.32916,0 -8.25214,3.65682 -9.4694,5.00188 -0.9186,1.01504 -0.90268,1.05707 0.40047,1.05707 0.7464,0 2.82971,-0.88176 4.62958,-1.95947 z m -4.06917,-2.80782 c 1.23828,-1.12063 1.29277,-2.16588 0.13602,-2.60976 -1.63342,-0.62681 -5.52526,-0.33642 -6.59714,0.49225 -1.04925,0.81116 -1.04494,0.84713 0.23115,1.92785 1.59453,1.35039 4.83826,1.44914 6.22997,0.18966 z m 13.68433,-6.25855 c 10.09121,-2.25801 15.49022,-3.89378 15.24899,-4.62006 -0.26886,-0.80943 -14.97413,-1.08785 -19.60207,-0.37113 -4.26675,0.66079 -6.12071,2.12118 -6.12071,4.82136 0,1.63359 0.16483,1.83184 1.52307,1.83184 0.83769,0 4.86552,-0.74791 8.95072,-1.66201 z M 74.974151,49.816111 c 1.549675,-0.718636 4.028335,-1.568803 5.508134,-1.889259 3.290384,-0.712545 5.720022,-1.65072 5.720022,-2.208716 0,-1.278427 -1.826828,-1.787013 -5.104862,-1.421184 -1.888013,0.210702 -4.733669,0.523254 -6.32368,0.694561 -1.590017,0.171306 -3.201146,0.06712 -3.580288,-0.231534 -1.140817,-0.898619 -3.62047,-1.299665 -4.021707,-0.65045 -0.203716,0.329619 0.452603,1.286375 1.458486,2.126125 1.802289,1.504618 1.815194,1.547706 0.887448,2.963621 -0.517786,0.790242 -0.941428,1.713086 -0.941428,2.050763 0,0.84297 2.879763,0.197542 6.397875,-1.433927 z m 42.344959,-5.193503 c 0.41929,-0.678415 -3.99443,-5.444445 -6.28374,-6.785323 -1.38007,-0.808319 -1.6989,-0.84682 -1.6989,-0.205148 0,0.434454 0.3718,1.098483 0.82622,1.475619 0.91907,0.762756 1.0954,1.65244 0.32752,1.65244 -0.27428,0 -1.53707,-0.867531 -2.80618,-1.927847 -1.26911,-1.060316 -2.5319,-1.927847 -2.80618,-1.927847 -0.82041,0 -0.56381,2.014332 0.35359,2.775705 1.41851,1.177252 -0.18827,1.612179 -2.91939,0.790233 -3.234501,-0.973441 -6.745914,-3.340535 -6.745914,-4.547517 0,-1.121372 -2.559438,-5.077369 -3.284942,-5.077369 -0.270135,0 -0.350455,1.363263 -0.178485,3.029474 0.265001,2.567632 0.17496,3.029474 -0.590616,3.029474 -1.145554,0 -1.142464,0.475178 0.01135,1.750149 1.139468,1.259101 0.506952,2.01955 -0.932224,1.120771 -0.587982,-0.367217 -1.583881,-0.667666 -2.21308,-0.667666 -0.954736,0 -1.115447,0.290152 -0.971399,1.753836 0.22818,2.31855 1.103919,2.534786 13.11672,3.238752 5.30158,0.31068 9.8871,0.658139 10.19005,0.772131 1.2044,0.453189 6.28998,0.260818 6.6056,-0.249867 z"
     id="path1012"
     transform="scale(0.75)" />
  <path
     style="fill:#ffffff;stroke-width:0.550813"
     d="m 99.824119,186.23366 c -3.332398,-1.09873 -5.089544,-2.07059 -6.755182,-3.73622 -0.965229,-0.96523 -0.925578,-1.01243 1.162045,-1.38324 1.188756,-0.21114 4.445473,-0.39818 7.237148,-0.41564 3.05945,-0.0191 6.07729,-0.37177 7.59694,-0.8877 1.38664,-0.47078 2.98923,-0.7074 3.56131,-0.52583 0.57208,0.18157 2.51836,-0.0529 4.32506,-0.52108 3.76773,-0.97631 9.77306,-1.1311 10.30792,-0.26568 1.45783,2.35881 -11.70024,7.71676 -20.86159,8.49482 -2.48403,0.21096 -4.24885,0.007 -6.573651,-0.75943 z"
     id="path1014"
     transform="scale(0.75)" />
  <path
     style="fill:#ffffff;stroke-width:0.550813"
     d="m 91.224003,161.59176 c -1.522229,-1.06621 -2.818442,-3.92624 -2.818442,-6.21876 0,-1.83774 1.026693,-4.45011 1.74895,-4.45011 1.459558,0 4.351653,8.67783 3.570513,10.71345 -0.415513,1.08281 -0.903875,1.07411 -2.501021,-0.0446 z"
     id="path1016"
     transform="scale(0.75)" />
</svg>
